STEWARD_UI_SERVER {"origin":"http://127.0.0.1:49273","recipeDirectory":"/tmp/steward-real-compression-ui-proof.ak5oGR/recipes","stagingRoot":"/tmp/steward-real-compression-ui-proof.ak5oGR/staged"}
STEWARD_UI_CLIENT {"type":"run_task","task":"Compress this video under 1 MB","files":["/private/tmp/steward-real-compression-ui-proof.ak5oGR/staged/725d0d27-8daa-4346-b9b0-d096056ec7e2-first-video.mp4"]}
STEWARD_UI_EVENT {"type":"run_started","run_id":"2b455340-66ae-44df-b0b3-1b109ec06d64","action":"task","files":["/private/tmp/steward-real-compression-ui-proof.ak5oGR/staged/725d0d27-8daa-4346-b9b0-d096056ec7e2-first-video.mp4"]}
STEWARD_UI_EVENT {"type":"activity","run_id":"2b455340-66ae-44df-b0b3-1b109ec06d64","message":"Checking the local recipe shelf."}
STEWARD_UI_EVENT {"type":"activity","run_id":"2b455340-66ae-44df-b0b3-1b109ec06d64","message":"No saved recipe matched. Reading the local system profile."}
STEWARD_UI_EVENT {"type":"activity","run_id":"2b455340-66ae-44df-b0b3-1b109ec06d64","message":"macOS 26.4.1 · arm64 · 16 GiB."}
STEWARD_UI_EVENT {"type":"activity","run_id":"2b455340-66ae-44df-b0b3-1b109ec06d64","message":"Planning a local command."}
STEWARD_UI_EVENT {"type":"activity","run_id":"2b455340-66ae-44df-b0b3-1b109ec06d64","message":"Plan ready. Preparing local execution."}
STEWARD_UI_EVENT {"type":"check_pending","run_id":"2b455340-66ae-44df-b0b3-1b109ec06d64","name":"size_under"}
STEWARD_UI_EVENT {"type":"check_pending","run_id":"2b455340-66ae-44df-b0b3-1b109ec06d64","name":"duration_matches"}
STEWARD_UI_EVENT {"type":"check_pending","run_id":"2b455340-66ae-44df-b0b3-1b109ec06d64","name":"streams_present"}
STEWARD_UI_EVENT {"type":"check_pending","run_id":"2b455340-66ae-44df-b0b3-1b109ec06d64","name":"plays"}
STEWARD_UI_EVENT {"type":"command_started","run_id":"2b455340-66ae-44df-b0b3-1b109ec06d64","argv":["ffmpeg","-i","/private/tmp/steward-real-compression-ui-proof.ak5oGR/staged/725d0d27-8daa-4346-b9b0-d096056ec7e2-first-video.mp4","-c:v","libx264","-b:v","1152k","-c:a","aac","-b:a","48k","-movflags","+faststart","/private/tmp/steward-real-compression-ui-proof.ak5oGR/staged/725d0d27-8daa-4346-b9b0-d096056ec7e2-first-video-compressed.mp4"]}
STEWARD_UI_EVENT {"type":"activity","run_id":"2b455340-66ae-44df-b0b3-1b109ec06d64","message":"$ ffmpeg -i /private/tmp/steward-real-compression-ui-proof.ak5oGR/staged/725d0d27-8daa-4346-b9b0-d096056ec7e2-first-video.mp4 -c:v libx264 -b:v 1152k -c:a aac -b:a 48k -movflags +faststart /private/tmp/steward-real-compression-ui-proof.ak5oGR/staged/725d0d27-8daa-4346-b9b0-d096056ec7e2-first-video-compressed.mp4"}
STEWARD_UI_EVENT {"type":"activity","run_id":"2b455340-66ae-44df-b0b3-1b109ec06d64","message":"frame=    0 fps=0.0 q=0.0 size=       0KiB time=N/A bitrate=N/A speed=N/A elapsed=0:00:00.59"}
STEWARD_UI_EVENT {"type":"activity","run_id":"2b455340-66ae-44df-b0b3-1b109ec06d64","message":"frame=   14 fps= 12 q=32.0 size=       0KiB time=00:00:00.40 bitrate=   1.0kbits/s speed=0.345x elapsed=0:00:01.15"}
STEWARD_UI_EVENT {"type":"activity","run_id":"2b455340-66ae-44df-b0b3-1b109ec06d64","message":"frame=   34 fps= 19 q=31.0 size=       0KiB time=00:00:01.06 bitrate=   0.4kbits/s speed=0.606x elapsed=0:00:01.75"}
STEWARD_UI_EVENT {"type":"activity","run_id":"2b455340-66ae-44df-b0b3-1b109ec06d64","message":"frame=   49 fps= 22 q=31.0 size=       0KiB time=00:00:01.56 bitrate=   0.2kbits/s speed=0.691x elapsed=0:00:02.26"}
STEWARD_UI_EVENT {"type":"activity","run_id":"2b455340-66ae-44df-b0b3-1b109ec06d64","message":"frame=   59 fps= 21 q=31.0 size=     256KiB time=00:00:01.90 bitrate=1104.0kbits/s speed=0.686x elapsed=0:00:02.76"}
STEWARD_UI_EVENT {"type":"activity","run_id":"2b455340-66ae-44df-b0b3-1b109ec06d64","message":"frame=   79 fps= 24 q=32.0 size=     256KiB time=00:00:02.56 bitrate= 817.2kbits/s speed=0.773x elapsed=0:00:03.32"}
STEWARD_UI_EVENT {"type":"activity","run_id":"2b455340-66ae-44df-b0b3-1b109ec06d64","message":"frame=   95 fps= 24 q=32.0 size=     256KiB time=00:00:03.10 bitrate= 676.6kbits/s speed=0.791x elapsed=0:00:03.91"}
STEWARD_UI_EVENT {"type":"activity","run_id":"2b455340-66ae-44df-b0b3-1b109ec06d64","message":"frame=  109 fps= 24 q=32.0 size=     512KiB time=00:00:03.56 bitrate=1176.1kbits/s speed=0.791x elapsed=0:00:04.51"}
STEWARD_UI_EVENT {"type":"activity","run_id":"2b455340-66ae-44df-b0b3-1b109ec06d64","message":"frame=  144 fps= 28 q=32.0 size=     512KiB time=N/A bitrate=N/A speed=N/A elapsed=0:00:05.11"}
STEWARD_UI_EVENT {"type":"command_completed","run_id":"2b455340-66ae-44df-b0b3-1b109ec06d64","exit_code":0,"duration_ms":5411}
STEWARD_UI_EVENT {"type":"activity","run_id":"2b455340-66ae-44df-b0b3-1b109ec06d64","message":"Command exited 0 in 5411 ms."}
STEWARD_UI_EVENT {"type":"verification_started","run_id":"2b455340-66ae-44df-b0b3-1b109ec06d64"}
STEWARD_UI_EVENT {"type":"verification_completed","run_id":"2b455340-66ae-44df-b0b3-1b109ec06d64","duration_ms":335}
STEWARD_UI_EVENT {"type":"activity","run_id":"2b455340-66ae-44df-b0b3-1b109ec06d64","message":"Attempt 1: passed."}
STEWARD_UI_EVENT {"type":"check_result","run_id":"2b455340-66ae-44df-b0b3-1b109ec06d64","name":"size_under","pass":true,"expected":"under 976.56 KB (1,000,000 bytes)","actual":"879.45 KB (900,553 bytes)"}
STEWARD_UI_EVENT {"type":"check_result","run_id":"2b455340-66ae-44df-b0b3-1b109ec06d64","name":"duration_matches","pass":true,"expected":"6.000 s ±0.500 s","actual":"6.016 s (Δ 0.016 s)"}
STEWARD_UI_EVENT {"type":"check_result","run_id":"2b455340-66ae-44df-b0b3-1b109ec06d64","name":"streams_present","pass":true,"expected":"video, audio","actual":"video (h264), audio (aac)"}
STEWARD_UI_EVENT {"type":"check_result","run_id":"2b455340-66ae-44df-b0b3-1b109ec06d64","name":"plays","pass":true,"expected":"full frame scan with no decode errors","actual":"video=180 frames, audio=282 frames; ffprobe exit 0; no decode errors"}
STEWARD_UI_EVENT {"type":"recipe_saved","run_id":"2b455340-66ae-44df-b0b3-1b109ec06d64","recipe":{"name":"compress-video-to-size-limit","command_template":{"commands":[["ffmpeg","-i","{{input_0}}","-c:v","libx264","-b:v","{{video_bitrate_kbps}}","-c:a","aac","-b:a","48k","-movflags","+faststart","{{input_0_dir}}/{{input_0_stem}}-compressed.mp4"]],"output_path":"{{input_0_dir}}/{{input_0_stem}}-compressed.mp4"},"checks":[{"type":"size_under","target":1000000},{"type":"duration_matches","target":"{{input_0}}"},{"type":"streams_present","target":"video,audio"},{"type":"plays","target":true}],"created_at":"2026-07-18T20:16:59.583Z","arch":"arm64","tool":"ffmpeg","install_weight":"light","replaced_service":"Clideo","monthly_price":9,"derivations":{"video_bitrate_kbps":{"name":"size_target_video_bitrate","args":{"target_bytes":1000000,"audio_kbps":48,"safety_factor":0.9}}}}}
STEWARD_UI_EVENT {"type":"run_complete","run_id":"2b455340-66ae-44df-b0b3-1b109ec06d64","success":true,"output_path":"/private/tmp/steward-real-compression-ui-proof.ak5oGR/staged/725d0d27-8daa-4346-b9b0-d096056ec7e2-first-video-compressed.mp4"}
STEWARD_UI_CLIENT {"type":"run_task","task":"Compress this video under 1 MB","files":["/private/tmp/steward-real-compression-ui-proof.ak5oGR/staged/e00e378a-2828-452a-aedb-7c834e11eb78-second-video.mp4"]}
STEWARD_UI_EVENT {"type":"run_started","run_id":"f2edc7f1-90ed-4be8-a6cf-3593286c1d2b","action":"task","files":["/private/tmp/steward-real-compression-ui-proof.ak5oGR/staged/e00e378a-2828-452a-aedb-7c834e11eb78-second-video.mp4"]}
STEWARD_UI_EVENT {"type":"activity","run_id":"f2edc7f1-90ed-4be8-a6cf-3593286c1d2b","message":"Checking the local recipe shelf."}
STEWARD_UI_EVENT {"type":"recipe_matched","run_id":"f2edc7f1-90ed-4be8-a6cf-3593286c1d2b","name":"compress-video-to-size-limit","score":0.879,"model_calls":0}
STEWARD_UI_EVENT {"type":"check_pending","run_id":"f2edc7f1-90ed-4be8-a6cf-3593286c1d2b","name":"size_under"}
STEWARD_UI_EVENT {"type":"check_pending","run_id":"f2edc7f1-90ed-4be8-a6cf-3593286c1d2b","name":"duration_matches"}
STEWARD_UI_EVENT {"type":"check_pending","run_id":"f2edc7f1-90ed-4be8-a6cf-3593286c1d2b","name":"streams_present"}
STEWARD_UI_EVENT {"type":"check_pending","run_id":"f2edc7f1-90ed-4be8-a6cf-3593286c1d2b","name":"plays"}
STEWARD_UI_EVENT {"type":"activity","run_id":"f2edc7f1-90ed-4be8-a6cf-3593286c1d2b","message":"Saved plan ready. Preparing local execution."}
STEWARD_UI_EVENT {"type":"command_started","run_id":"f2edc7f1-90ed-4be8-a6cf-3593286c1d2b","argv":["ffmpeg","-i","/private/tmp/steward-real-compression-ui-proof.ak5oGR/staged/e00e378a-2828-452a-aedb-7c834e11eb78-second-video.mp4","-c:v","libx264","-b:v","980k","-c:a","aac","-b:a","48k","-movflags","+faststart","/private/tmp/steward-real-compression-ui-proof.ak5oGR/staged/e00e378a-2828-452a-aedb-7c834e11eb78-second-video-compressed.mp4"]}
STEWARD_UI_EVENT {"type":"activity","run_id":"f2edc7f1-90ed-4be8-a6cf-3593286c1d2b","message":"$ ffmpeg -i /private/tmp/steward-real-compression-ui-proof.ak5oGR/staged/e00e378a-2828-452a-aedb-7c834e11eb78-second-video.mp4 -c:v libx264 -b:v 980k -c:a aac -b:a 48k -movflags +faststart /private/tmp/steward-real-compression-ui-proof.ak5oGR/staged/e00e378a-2828-452a-aedb-7c834e11eb78-second-video-compressed.mp4"}
STEWARD_UI_EVENT {"type":"activity","run_id":"f2edc7f1-90ed-4be8-a6cf-3593286c1d2b","message":"frame=    0 fps=0.0 q=0.0 size=       0KiB time=N/A bitrate=N/A speed=N/A elapsed=0:00:00.56"}
STEWARD_UI_EVENT {"type":"activity","run_id":"f2edc7f1-90ed-4be8-a6cf-3593286c1d2b","message":"frame=    0 fps=0.0 q=34.0 size=       0KiB time=-00:00:00.03 bitrate=N/A speed=N/A elapsed=0:00:01.14"}
STEWARD_UI_EVENT {"type":"activity","run_id":"f2edc7f1-90ed-4be8-a6cf-3593286c1d2b","message":"frame=   10 fps=5.8 q=36.0 size=       0KiB time=00:00:00.26 bitrate=   1.4kbits/s speed=0.156x elapsed=0:00:01.71"}
STEWARD_UI_EVENT {"type":"activity","run_id":"f2edc7f1-90ed-4be8-a6cf-3593286c1d2b","message":"frame=   26 fps= 11 q=33.0 size=       0KiB time=00:00:00.80 bitrate=   0.5kbits/s speed=0.347x elapsed=0:00:02.30"}
STEWARD_UI_EVENT {"type":"activity","run_id":"f2edc7f1-90ed-4be8-a6cf-3593286c1d2b","message":"frame=   42 fps= 14 q=35.0 size=       0KiB time=00:00:01.33 bitrate=   0.3kbits/s speed=0.458x elapsed=0:00:02.90"}
STEWARD_UI_EVENT {"type":"activity","run_id":"f2edc7f1-90ed-4be8-a6cf-3593286c1d2b","message":"frame=   50 fps= 14 q=35.0 size=       0KiB time=00:00:01.60 bitrate=   0.2kbits/s speed=0.455x elapsed=0:00:03.51"}
STEWARD_UI_EVENT {"type":"activity","run_id":"f2edc7f1-90ed-4be8-a6cf-3593286c1d2b","message":"frame=   62 fps= 15 q=36.0 size=     256KiB time=00:00:02.00 bitrate=1048.8kbits/s speed=0.486x elapsed=0:00:04.11"}
STEWARD_UI_EVENT {"type":"activity","run_id":"f2edc7f1-90ed-4be8-a6cf-3593286c1d2b","message":"frame=   76 fps= 16 q=36.0 size=     256KiB time=00:00:02.46 bitrate= 850.4kbits/s speed=0.528x elapsed=0:00:04.67"}
STEWARD_UI_EVENT {"type":"activity","run_id":"f2edc7f1-90ed-4be8-a6cf-3593286c1d2b","message":"frame=   90 fps= 17 q=36.0 size=     256KiB time=00:00:02.93 bitrate= 715.1kbits/s speed=0.556x elapsed=0:00:05.27"}
STEWARD_UI_EVENT {"type":"activity","run_id":"f2edc7f1-90ed-4be8-a6cf-3593286c1d2b","message":"frame=  102 fps= 17 q=36.0 size=     256KiB time=00:00:03.33 bitrate= 629.3kbits/s speed=0.568x elapsed=0:00:05.86"}
STEWARD_UI_EVENT {"type":"activity","run_id":"f2edc7f1-90ed-4be8-a6cf-3593286c1d2b","message":"frame=  114 fps= 18 q=37.0 size=     256KiB time=00:00:03.73 bitrate= 561.8kbits/s speed=0.577x elapsed=0:00:06.46"}
STEWARD_UI_EVENT {"type":"activity","run_id":"f2edc7f1-90ed-4be8-a6cf-3593286c1d2b","message":"frame=  129 fps= 18 q=37.0 size=     512KiB time=00:00:04.23 bitrate= 990.9kbits/s speed=0.599x elapsed=0:00:07.06"}
STEWARD_UI_EVENT {"type":"activity","run_id":"f2edc7f1-90ed-4be8-a6cf-3593286c1d2b","message":"frame=  138 fps= 18 q=37.0 size=     512KiB time=00:00:04.53 bitrate= 925.3kbits/s speed=0.592x elapsed=0:00:07.65"}
STEWARD_UI_EVENT {"type":"activity","run_id":"f2edc7f1-90ed-4be8-a6cf-3593286c1d2b","message":"frame=  154 fps= 19 q=37.0 size=     512KiB time=N/A bitrate=N/A speed=N/A elapsed=0:00:08.24"}
STEWARD_UI_EVENT {"type":"activity","run_id":"f2edc7f1-90ed-4be8-a6cf-3593286c1d2b","message":"frame=  170 fps= 19 q=37.0 size=     512KiB time=N/A bitrate=N/A speed=N/A elapsed=0:00:08.76"}
STEWARD_UI_EVENT {"type":"activity","run_id":"f2edc7f1-90ed-4be8-a6cf-3593286c1d2b","message":"frame=  189 fps= 20 q=37.0 size=     768KiB time=N/A bitrate=N/A speed=N/A elapsed=0:00:09.36"}
STEWARD_UI_EVENT {"type":"command_completed","run_id":"f2edc7f1-90ed-4be8-a6cf-3593286c1d2b","exit_code":0,"duration_ms":10021}
STEWARD_UI_EVENT {"type":"activity","run_id":"f2edc7f1-90ed-4be8-a6cf-3593286c1d2b","message":"Command exited 0 in 10021 ms."}
STEWARD_UI_EVENT {"type":"verification_started","run_id":"f2edc7f1-90ed-4be8-a6cf-3593286c1d2b"}
STEWARD_UI_EVENT {"type":"verification_completed","run_id":"f2edc7f1-90ed-4be8-a6cf-3593286c1d2b","duration_ms":1821}
STEWARD_UI_EVENT {"type":"check_result","run_id":"f2edc7f1-90ed-4be8-a6cf-3593286c1d2b","name":"size_under","pass":true,"expected":"under 976.56 KB (1,000,000 bytes)","actual":"935.57 KB (958,020 bytes)"}
STEWARD_UI_EVENT {"type":"check_result","run_id":"f2edc7f1-90ed-4be8-a6cf-3593286c1d2b","name":"duration_matches","pass":true,"expected":"7.000 s ±0.500 s","actual":"7.018 s (Δ 0.018 s)"}
STEWARD_UI_EVENT {"type":"check_result","run_id":"f2edc7f1-90ed-4be8-a6cf-3593286c1d2b","name":"streams_present","pass":true,"expected":"video, audio","actual":"video (h264), audio (aac)"}
STEWARD_UI_EVENT {"type":"check_result","run_id":"f2edc7f1-90ed-4be8-a6cf-3593286c1d2b","name":"plays","pass":true,"expected":"full frame scan with no decode errors","actual":"video=210 frames, audio=329 frames; ffprobe exit 0; no decode errors"}
STEWARD_UI_EVENT {"type":"run_complete","run_id":"f2edc7f1-90ed-4be8-a6cf-3593286c1d2b","success":true,"output_path":"/private/tmp/steward-real-compression-ui-proof.ak5oGR/staged/e00e378a-2828-452a-aedb-7c834e11eb78-second-video-compressed.mp4","model_calls":0}
STEWARD_UI_CLIENT {"type":"run_task","task":"Compress this video under 1 MB","files":["/private/tmp/steward-real-compression-ui-proof.ak5oGR/staged/49c5fd8f-f67d-4fc1-afd0-1e5fbce8d7cd-first-video.mp4"]}
STEWARD_UI_EVENT {"type":"run_started","run_id":"ade6e888-ae70-450b-aacd-ffbdd7ea7758","action":"task","files":["/private/tmp/steward-real-compression-ui-proof.ak5oGR/staged/49c5fd8f-f67d-4fc1-afd0-1e5fbce8d7cd-first-video.mp4"]}
STEWARD_UI_EVENT {"type":"activity","run_id":"ade6e888-ae70-450b-aacd-ffbdd7ea7758","message":"Checking the local recipe shelf."}
STEWARD_UI_EVENT {"type":"activity","run_id":"ade6e888-ae70-450b-aacd-ffbdd7ea7758","message":"No saved recipe matched. Reading the local system profile."}
STEWARD_UI_EVENT {"type":"activity","run_id":"ade6e888-ae70-450b-aacd-ffbdd7ea7758","message":"macOS 26.4.1 · arm64 · 16 GiB."}
STEWARD_UI_EVENT {"type":"activity","run_id":"ade6e888-ae70-450b-aacd-ffbdd7ea7758","message":"Planning a local command."}
STEWARD_UI_EVENT {"type":"activity","run_id":"ade6e888-ae70-450b-aacd-ffbdd7ea7758","message":"Plan ready. Preparing local execution."}
STEWARD_UI_EVENT {"type":"check_pending","run_id":"ade6e888-ae70-450b-aacd-ffbdd7ea7758","name":"size_under"}
STEWARD_UI_EVENT {"type":"check_pending","run_id":"ade6e888-ae70-450b-aacd-ffbdd7ea7758","name":"duration_matches"}
STEWARD_UI_EVENT {"type":"check_pending","run_id":"ade6e888-ae70-450b-aacd-ffbdd7ea7758","name":"streams_present"}
STEWARD_UI_EVENT {"type":"check_pending","run_id":"ade6e888-ae70-450b-aacd-ffbdd7ea7758","name":"plays"}
STEWARD_UI_EVENT {"type":"command_started","run_id":"ade6e888-ae70-450b-aacd-ffbdd7ea7758","argv":["ffmpeg","-i","/private/tmp/steward-real-compression-ui-proof.ak5oGR/staged/49c5fd8f-f67d-4fc1-afd0-1e5fbce8d7cd-first-video.mp4","-c:v","libx264","-b:v","1189k","-c:a","aac","-b:a","64k","-movflags","+faststart","/private/tmp/steward-real-compression-ui-proof.ak5oGR/staged/49c5fd8f-f67d-4fc1-afd0-1e5fbce8d7cd-first-video-under-1mb.mp4"]}
STEWARD_UI_EVENT {"type":"activity","run_id":"ade6e888-ae70-450b-aacd-ffbdd7ea7758","message":"$ ffmpeg -i /private/tmp/steward-real-compression-ui-proof.ak5oGR/staged/49c5fd8f-f67d-4fc1-afd0-1e5fbce8d7cd-first-video.mp4 -c:v libx264 -b:v 1189k -c:a aac -b:a 64k -movflags +faststart /private/tmp/steward-real-compression-ui-proof.ak5oGR/staged/49c5fd8f-f67d-4fc1-afd0-1e5fbce8d7cd-first-video-under-1mb.mp4"}
STEWARD_UI_EVENT {"type":"activity","run_id":"ade6e888-ae70-450b-aacd-ffbdd7ea7758","message":"frame=    0 fps=0.0 q=0.0 size=       0KiB time=N/A bitrate=N/A speed=N/A elapsed=0:00:00.59"}
STEWARD_UI_EVENT {"type":"activity","run_id":"ade6e888-ae70-450b-aacd-ffbdd7ea7758","message":"frame=   13 fps= 11 q=31.0 size=       0KiB time=00:00:00.36 bitrate=   1.0kbits/s speed=0.306x elapsed=0:00:01.20"}
STEWARD_UI_EVENT {"type":"activity","run_id":"ade6e888-ae70-450b-aacd-ffbdd7ea7758","message":"frame=   29 fps= 16 q=30.0 size=       0KiB time=00:00:00.90 bitrate=   0.4kbits/s speed=0.498x elapsed=0:00:01.80"}
STEWARD_UI_EVENT {"type":"activity","run_id":"ade6e888-ae70-450b-aacd-ffbdd7ea7758","message":"frame=   50 fps= 21 q=31.0 size=       0KiB time=00:00:01.60 bitrate=   0.2kbits/s speed=0.681x elapsed=0:00:02.34"}
STEWARD_UI_EVENT {"type":"activity","run_id":"ade6e888-ae70-450b-aacd-ffbdd7ea7758","message":"frame=   72 fps= 25 q=32.0 size=     256KiB time=00:00:02.33 bitrate= 898.9kbits/s speed=0.814x elapsed=0:00:02.86"}
STEWARD_UI_EVENT {"type":"activity","run_id":"ade6e888-ae70-450b-aacd-ffbdd7ea7758","message":"frame=   91 fps= 26 q=32.0 size=     256KiB time=00:00:02.96 bitrate= 707.0kbits/s speed=0.859x elapsed=0:00:03.45"}
STEWARD_UI_EVENT {"type":"activity","run_id":"ade6e888-ae70-450b-aacd-ffbdd7ea7758","message":"frame=  108 fps= 27 q=32.0 size=     512KiB time=00:00:03.53 bitrate=1187.2kbits/s speed=0.871x elapsed=0:00:04.05"}
STEWARD_UI_EVENT {"type":"activity","run_id":"ade6e888-ae70-450b-aacd-ffbdd7ea7758","message":"frame=  136 fps= 29 q=31.0 size=     512KiB time=N/A bitrate=N/A speed=N/A elapsed=0:00:04.65"}
STEWARD_UI_EVENT {"type":"activity","run_id":"ade6e888-ae70-450b-aacd-ffbdd7ea7758","message":"frame=  175 fps= 33 q=-1.0 size=     768KiB time=N/A bitrate=N/A speed=N/A elapsed=0:00:05.24"}
STEWARD_UI_EVENT {"type":"command_completed","run_id":"ade6e888-ae70-450b-aacd-ffbdd7ea7758","exit_code":0,"duration_ms":5467}
STEWARD_UI_EVENT {"type":"activity","run_id":"ade6e888-ae70-450b-aacd-ffbdd7ea7758","message":"Command exited 0 in 5467 ms."}
STEWARD_UI_EVENT {"type":"verification_started","run_id":"ade6e888-ae70-450b-aacd-ffbdd7ea7758"}
STEWARD_UI_EVENT {"type":"verification_completed","run_id":"ade6e888-ae70-450b-aacd-ffbdd7ea7758","duration_ms":1331}
STEWARD_UI_EVENT {"type":"activity","run_id":"ade6e888-ae70-450b-aacd-ffbdd7ea7758","message":"Attempt 1: passed."}
STEWARD_UI_EVENT {"type":"check_result","run_id":"ade6e888-ae70-450b-aacd-ffbdd7ea7758","name":"size_under","pass":true,"expected":"under 976.56 KB (1,000,000 bytes)","actual":"918.39 KB (940,429 bytes)"}
STEWARD_UI_EVENT {"type":"check_result","run_id":"ade6e888-ae70-450b-aacd-ffbdd7ea7758","name":"duration_matches","pass":true,"expected":"6.000 s ±0.500 s","actual":"6.016 s (Δ 0.016 s)"}
STEWARD_UI_EVENT {"type":"check_result","run_id":"ade6e888-ae70-450b-aacd-ffbdd7ea7758","name":"streams_present","pass":true,"expected":"video, audio","actual":"video (h264), audio (aac)"}
STEWARD_UI_EVENT {"type":"check_result","run_id":"ade6e888-ae70-450b-aacd-ffbdd7ea7758","name":"plays","pass":true,"expected":"full frame scan with no decode errors","actual":"video=180 frames, audio=282 frames; ffprobe exit 0; no decode errors"}
STEWARD_UI_EVENT {"type":"recipe_saved","run_id":"ade6e888-ae70-450b-aacd-ffbdd7ea7758","recipe":{"name":"compress-video-under-size-limit","command_template":{"commands":[["ffmpeg","-i","{{input_0}}","-c:v","libx264","-b:v","{{video_bitrate_kbps}}","-c:a","aac","-b:a","64k","-movflags","+faststart","{{input_0_dir}}/{{input_0_stem}}-under-1mb.mp4"]],"output_path":"{{input_0_dir}}/{{input_0_stem}}-under-1mb.mp4"},"checks":[{"type":"size_under","target":1000000},{"type":"duration_matches","target":"{{input_0}}"},{"type":"streams_present","target":"video,audio"},{"type":"plays","target":true}],"created_at":"2026-07-18T20:21:48.010Z","arch":"arm64","tool":"ffmpeg","install_weight":"light","replaced_service":"Clideo","monthly_price":9,"derivations":{"video_bitrate_kbps":{"name":"size_target_video_bitrate","args":{"target_bytes":1000000,"audio_kbps":64,"safety_factor":0.94}}}}}
STEWARD_UI_EVENT {"type":"run_complete","run_id":"ade6e888-ae70-450b-aacd-ffbdd7ea7758","success":true,"output_path":"/private/tmp/steward-real-compression-ui-proof.ak5oGR/staged/49c5fd8f-f67d-4fc1-afd0-1e5fbce8d7cd-first-video-under-1mb.mp4"}
STEWARD_UI_CLIENT {"type":"run_recipe","name":"compress-video-under-size-limit","files":["/private/tmp/steward-real-compression-ui-proof.ak5oGR/staged/49c5fd8f-f67d-4fc1-afd0-1e5fbce8d7cd-first-video.mp4"]}
STEWARD_UI_EVENT {"type":"run_started","run_id":"002ca472-7d03-491d-92de-3ded61715cc2","action":"recipe","files":["/private/tmp/steward-real-compression-ui-proof.ak5oGR/staged/49c5fd8f-f67d-4fc1-afd0-1e5fbce8d7cd-first-video.mp4"]}
STEWARD_UI_EVENT {"type":"recipe_matched","run_id":"002ca472-7d03-491d-92de-3ded61715cc2","name":"compress-video-under-size-limit","score":1,"model_calls":0}
STEWARD_UI_EVENT {"type":"check_pending","run_id":"002ca472-7d03-491d-92de-3ded61715cc2","name":"size_under"}
STEWARD_UI_EVENT {"type":"check_pending","run_id":"002ca472-7d03-491d-92de-3ded61715cc2","name":"duration_matches"}
STEWARD_UI_EVENT {"type":"check_pending","run_id":"002ca472-7d03-491d-92de-3ded61715cc2","name":"streams_present"}
STEWARD_UI_EVENT {"type":"check_pending","run_id":"002ca472-7d03-491d-92de-3ded61715cc2","name":"plays"}
STEWARD_UI_EVENT {"type":"activity","run_id":"002ca472-7d03-491d-92de-3ded61715cc2","message":"Saved plan ready. Preparing local execution."}
STEWARD_UI_EVENT {"type":"command_started","run_id":"002ca472-7d03-491d-92de-3ded61715cc2","argv":["ffmpeg","-i","/private/tmp/steward-real-compression-ui-proof.ak5oGR/staged/49c5fd8f-f67d-4fc1-afd0-1e5fbce8d7cd-first-video.mp4","-c:v","libx264","-b:v","1189k","-c:a","aac","-b:a","64k","-movflags","+faststart","/private/tmp/steward-real-compression-ui-proof.ak5oGR/staged/49c5fd8f-f67d-4fc1-afd0-1e5fbce8d7cd-first-video-under-1mb-2.mp4"]}
STEWARD_UI_EVENT {"type":"activity","run_id":"002ca472-7d03-491d-92de-3ded61715cc2","message":"$ ffmpeg -i /private/tmp/steward-real-compression-ui-proof.ak5oGR/staged/49c5fd8f-f67d-4fc1-afd0-1e5fbce8d7cd-first-video.mp4 -c:v libx264 -b:v 1189k -c:a aac -b:a 64k -movflags +faststart /private/tmp/steward-real-compression-ui-proof.ak5oGR/staged/49c5fd8f-f67d-4fc1-afd0-1e5fbce8d7cd-first-video-under-1mb-2.mp4"}
STEWARD_UI_EVENT {"type":"activity","run_id":"002ca472-7d03-491d-92de-3ded61715cc2","message":"frame=    0 fps=0.0 q=0.0 size=       0KiB time=N/A bitrate=N/A speed=N/A elapsed=0:00:00.59"}
STEWARD_UI_EVENT {"type":"activity","run_id":"002ca472-7d03-491d-92de-3ded61715cc2","message":"frame=   14 fps= 12 q=31.0 size=       0KiB time=00:00:00.40 bitrate=   1.0kbits/s speed=0.331x elapsed=0:00:01.20"}
STEWARD_UI_EVENT {"type":"activity","run_id":"002ca472-7d03-491d-92de-3ded61715cc2","message":"frame=   35 fps= 19 q=30.0 size=       0KiB time=00:00:01.10 bitrate=   0.3kbits/s speed=0.609x elapsed=0:00:01.80"}
STEWARD_UI_EVENT {"type":"activity","run_id":"002ca472-7d03-491d-92de-3ded61715cc2","message":"frame=   62 fps= 26 q=31.0 size=     256KiB time=00:00:02.00 bitrate=1048.8kbits/s speed=0.836x elapsed=0:00:02.39"}
STEWARD_UI_EVENT {"type":"activity","run_id":"002ca472-7d03-491d-92de-3ded61715cc2","message":"frame=   81 fps= 27 q=32.0 size=     256KiB time=00:00:02.66 bitrate= 786.6kbits/s speed=0.89x elapsed=0:00:02.99"}
STEWARD_UI_EVENT {"type":"activity","run_id":"002ca472-7d03-491d-92de-3ded61715cc2","message":"frame=  103 fps= 29 q=32.0 size=     512KiB time=00:00:03.36 bitrate=1245.9kbits/s speed=0.936x elapsed=0:00:03.59"}
STEWARD_UI_EVENT {"type":"activity","run_id":"002ca472-7d03-491d-92de-3ded61715cc2","message":"frame=  119 fps= 29 q=32.0 size=     512KiB time=00:00:03.90 bitrate=1075.6kbits/s speed=0.946x elapsed=0:00:04.12"}
STEWARD_UI_EVENT {"type":"activity","run_id":"002ca472-7d03-491d-92de-3ded61715cc2","message":"frame=  150 fps= 32 q=31.0 size=     512KiB time=N/A bitrate=N/A speed=N/A elapsed=0:00:04.68"}
STEWARD_UI_EVENT {"type":"activity","run_id":"002ca472-7d03-491d-92de-3ded61715cc2","message":"frame=  167 fps= 32 q=31.0 size=     768KiB time=N/A bitrate=N/A speed=N/A elapsed=0:00:05.25"}
STEWARD_UI_EVENT {"type":"command_completed","run_id":"002ca472-7d03-491d-92de-3ded61715cc2","exit_code":0,"duration_ms":5593}
STEWARD_UI_EVENT {"type":"activity","run_id":"002ca472-7d03-491d-92de-3ded61715cc2","message":"Command exited 0 in 5593 ms."}
STEWARD_UI_EVENT {"type":"verification_started","run_id":"002ca472-7d03-491d-92de-3ded61715cc2"}
STEWARD_UI_EVENT {"type":"verification_completed","run_id":"002ca472-7d03-491d-92de-3ded61715cc2","duration_ms":1341}
STEWARD_UI_EVENT {"type":"check_result","run_id":"002ca472-7d03-491d-92de-3ded61715cc2","name":"size_under","pass":true,"expected":"under 976.56 KB (1,000,000 bytes)","actual":"918.39 KB (940,429 bytes)"}
STEWARD_UI_EVENT {"type":"check_result","run_id":"002ca472-7d03-491d-92de-3ded61715cc2","name":"duration_matches","pass":true,"expected":"6.000 s ±0.500 s","actual":"6.016 s (Δ 0.016 s)"}
STEWARD_UI_EVENT {"type":"check_result","run_id":"002ca472-7d03-491d-92de-3ded61715cc2","name":"streams_present","pass":true,"expected":"video, audio","actual":"video (h264), audio (aac)"}
STEWARD_UI_EVENT {"type":"check_result","run_id":"002ca472-7d03-491d-92de-3ded61715cc2","name":"plays","pass":true,"expected":"full frame scan with no decode errors","actual":"video=180 frames, audio=282 frames; ffprobe exit 0; no decode errors"}
STEWARD_UI_EVENT {"type":"run_complete","run_id":"002ca472-7d03-491d-92de-3ded61715cc2","success":true,"output_path":"/private/tmp/steward-real-compression-ui-proof.ak5oGR/staged/49c5fd8f-f67d-4fc1-afd0-1e5fbce8d7cd-first-video-under-1mb-2.mp4","model_calls":0}
